:version 1.10
:name ASF
:units
  mass 1
  length 1
  angle deg
:documentation
  ASF file generated by Kaydara
:root
  axis xyz
  order  tx ty tz rx ry rz
  position 0 0 0
  orientation 0 0 0
:bonedata
  begin
    id 1
    name RightUpLegDummy
    direction -0.718183 -0.695806 0.00816078
    length 4.904
    axis 0 0 0 xyz
  end
  begin
    id 2
    name RightUpLeg
    direction 3.53373e-006 -0.995788 0.0916898
    length 17.4976
    axis -3.49089 -0.000906625 0.000286804 xyz
    dof rx ry rz
  end
  begin
    id 3
    name RightLeg
    direction 0.00371092 -0.995096 -0.0988419
    length 16.5821
    axis 3.68512 0.0193738 -0.131023 xyz
    dof rx ry rz
  end
  begin
    id 4
    name RightFoot
    direction 0.00079151 -0.46099 0.887405
    length 3.77069
    axis 4.81691e-005 -0.120479 -0.188788 xyz
    dof rx ry rz
  end
  begin
    id 5
    name RightToes
    direction 0 0 0
    length 0
    axis 0 0 0 xyz
    dof rx ry rz
  end
  begin
    id 6
    name SpineDummy
    direction 8.3039e-015 1 4.57515e-016
    length 4.6813
    axis 0 0 0 xyz
  end
  begin
    id 7
    name Spine
    direction -3.15643e-008 0.999988 0.00495137
    length 10.1015
    axis -0.001389 0.000121418 2.40972e-006 xyz
    dof rx ry rz
  end
  begin
    id 8
    name Spine1
    direction 0 0 0
    length 0
    axis -0.001389 0.000121451 1.30017e-006 xyz
    dof rx ry rz
  end
  begin
    id 9
    name HEadDummy
    direction -1.99912e-008 0.999999 0.00127422
    length 3.43865
    axis -0.001389 0.000121451 1.30017e-006 xyz
  end
  begin
    id 10
    name HEad
    direction 0 0 0
    length 0
    axis 0 0 0 xyz
    dof rx ry rz
  end
  begin
    id 11
    name LeftShoulder1Dummy
    direction 0.998891 -0.0402509 -0.0244456
    length 3.5433
    axis -0.001389 0.000121451 1.30017e-006 xyz
  end
  begin
    id 12
    name LeftShoulder1
    direction 0.99951 -0.000327763 0.0313091
    length 4.05031
    axis -0.001389 0.000121451 1.30017e-006 xyz
    dof rx ry rz
  end
  begin
    id 13
    name LeftArm
    direction 0.998561 -0.00100056 -0.0536182
    length 10.3537
    axis -23.1894 0.134784 0.967509 xyz
    dof rx ry rz
  end
  begin
    id 14
    name LeftForeArm
    direction 0.998903 0.00866432 0.046012
    length 8.70632
    axis -9.91835 -0.06569 -0.177794 xyz
    dof rx ry rz
  end
  begin
    id 15
    name LeftHand
    direction 0 0 0
    length 0
    axis 0 0 0 xyz
    dof rx ry rz
  end
  begin
    id 16
    name RightShoulderDummy
    direction -0.998891 -0.0402509 -0.0244414
    length 3.5433
    axis -0.001389 0.000121451 1.30017e-006 xyz
  end
  begin
    id 17
    name RightShoulder
    direction -0.99951 -0.000327807 0.0313133
    length 4.05031
    axis 0.215806 0.000203643 -0.0068026 xyz
    dof rx ry rz
  end
  begin
    id 18
    name RightArm
    direction -0.998573 -0.000999564 -0.053403
    length 10.3947
    axis -23.2009 -0.134239 -0.964101 xyz
    dof rx ry rz
  end
  begin
    id 19
    name RightForeArm
    direction -0.998898 0.00868028 0.0461306
    length 8.68355
    axis -9.92322 0.0658061 0.178868 xyz
    dof rx ry rz
  end
  begin
    id 20
    name RightHand
    direction 0 0 0
    length 0
    axis 0 0 0 xyz
    dof rx ry rz
  end
  begin
    id 21
    name LeftUpLegDummy
    direction 0.718183 -0.695806 0.00816078
    length 4.904
    axis 0 0 0 xyz
  end
  begin
    id 22
    name LeftUpLeg
    direction -6.81752e-006 -0.995793 0.0916337
    length 17.4976
    axis -3.48766 0.00143442 -0.000524262 xyz
    dof rx ry rz
  end
  begin
    id 23
    name LeftLeg
    direction -0.00601358 -0.995091 -0.0987824
    length 16.5821
    axis 3.68178 -0.00654042 -0.000285133 xyz
    dof rx ry rz
  end
  begin
    id 24
    name LeftFoot
    direction -0.00417578 -0.460984 0.887399
    length 3.77069
    axis 1.87233e-006 4.66016e-005 -8.6538e-006 xyz
    dof rx ry rz
  end
  begin
    id 25
    name LeftToes
    direction 0 0 0
    length 0
    axis 0 0 0 xyz
    dof rx ry rz
  end
:hierarchy
  begin
    root RightUpLegDummy SpineDummy LeftUpLegDummy
    RightUpLegDummy RightUpLeg
    RightUpLeg RightLeg
    RightLeg RightFoot
    RightFoot RightToes
    SpineDummy Spine
    Spine Spine1
    Spine1 HEadDummy LeftShoulder1Dummy RightShoulderDummy
    HEadDummy HEad
    LeftShoulder1Dummy LeftShoulder1
    LeftShoulder1 LeftArm
    LeftArm LeftForeArm
    LeftForeArm LeftHand
    RightShoulderDummy RightShoulder
    RightShoulder RightArm
    RightArm RightForeArm
    RightForeArm RightHand
    LeftUpLegDummy LeftUpLeg
    LeftUpLeg LeftLeg
    LeftLeg LeftFoot
    LeftFoot LeftToes
  end

:SAMPLES-PER-SECOND 30
:FULLY-SPECIFIED
:DEGREES
210
root  13.2419 40.8285 7.68428 15.8118 87.8151 13.2571
RightUpLeg  -5.51671 -9.98614 -9.32349
RightLeg  3.42377 -5.40652 3.09456
RightFoot  3.23635 -0.176728 1.55426
RightToes  0.000481921 0.542163 -0.142578
Spine  15.7675 6.0843 19.4874
Spine1  -5.2194 11.6825 -22.7106
HEad  19.0063 -22.6126 3.18644
LeftShoulder1  7.07767 -12.4926 -38.0927
LeftArm  0.219347 10.2398 -34.1809
LeftForeArm  175.062 -62.9866 -161.163
LeftHand  -0.25398 0.0180481 5.50724
RightShoulder  0.45117 1.49007 0.848077
RightArm  -6.50049 68.4684 73.6478
RightForeArm  20.5765 7.05194 0.534022
RightHand  -1.76225 8.26746 -15.3385
LeftUpLeg  -3.18135 6.15267 3.71647
LeftLeg  1.02516 20.3826 -5.08081
LeftFoot  1.50438 0.189233 -1.76239
LeftToes  1.06247e-005 4.65869e-005 -8.65511e-006
211
root  13.4519 40.8467 7.75961 129.742 87.6988 126.792
RightUpLeg  -4.30822 -10.0413 -9.24619
RightLeg  2.59199 -8.83628 3.29883
RightFoot  2.86629 -0.199699 1.75769
RightToes  0.000481921 0.542163 -0.142578
Spine  13.1749 5.44673 14.1763
Spine1  -5.29752 9.00427 -15.4865
HEad  20.4745 -20.8335 2.90244
LeftShoulder1  7.04547 -12.1152 -38.9163
LeftArm  -0.385242 13.3992 -35.6516
LeftForeArm  176.1 -61.4696 -162.381
LeftHand  -0.25398 0.0180481 5.50724
RightShoulder  0.837051 2.0059 7.38085
RightArm  -1.8673 54.0906 70.4822
RightForeArm  11.4977 38.3224 8.7081
RightHand  -1.76522 7.26715 -16.5142
LeftUpLeg  -3.93138 5.62632 3.72081
LeftLeg  1.21779 17.4038 -4.43859
LeftFoot  1.66669 0.194868 -1.79828
LeftToes  1.06247e-005 4.65869e-005 -8.65511e-006
212
root  13.6335 40.8371 7.81833 165.336 86.1869 163.023
RightUpLeg  -3.339 -10.2131 -9.42318
RightLeg  3.60328 -10.4978 3.1355
RightFoot  1.91696 -0.20609 1.86737
RightToes  0.000481921 0.542163 -0.142578
Spine  12.157 4.38154 9.92523
Spine1  -4.49876 6.85081 -10.5162
HEad  20.4662 -18.7334 2.76095
LeftShoulder1  6.72394 -11.4776 -38.6925
LeftArm  -0.681321 15.5461 -36.3875
LeftForeArm  176.311 -60.0828 -163.34
LeftHand  -0.25398 0.0180481 5.50724
RightShoulder  1.58345 4.07447 14.0216
RightArm  -6.58929 36.922 61.3466
RightForeArm  29.9926 70.4072 34.1762
RightHand  -0.945274 2.22397 -14.4327
LeftUpLeg  -3.34945 5.42434 3.69935
LeftLeg  1.42449 15.5989 -4.09191
LeftFoot  1.59375 0.183987 -1.70839
LeftToes  1.06247e-005 4.65869e-005 -8.65511e-006
213
root  13.8121 40.8155 7.87077 163.221 85.2412 161.748
RightUpLeg  -2.70076 -10.4644 -9.82477
RightLeg  5.22377 -11.0429 2.71369
RightFoot  0.824496 -0.213382 2.03052
RightToes  0.000481921 0.542163 -0.142578
Spine  12.0906 3.51099 6.95324
Spine1  -3.62108 5.38361 -7.6551
HEad  19.1639 -16.8805 2.32242
LeftShoulder1  6.10341 -10.313 -38.0163
LeftArm  0.0984603 16.1738 -35.8079
LeftForeArm  177.223 -59.6098 -163.718
LeftHand  -0.25398 0.0180481 5.50724
RightShoulder  2.1325 4.79587 19.3512
RightArm  -10.0151 17.0106 56.2021
RightForeArm  128.503 75.658 135.248
RightHand  -0.183636 -3.64756 -10.5228
LeftUpLeg  -2.29509 5.40993 3.58356
LeftLeg  1.4915 14.6248 -4.08832
LeftFoot  1.46047 0.171006 -1.60495
LeftToes  1.06247e-005 4.65869e-005 -8.65511e-006
214
root  14.0582 40.8005 7.92021 167.171 82.6163 165.841
RightUpLeg  -1.76317 -10.7745 -10.2452
RightLeg  5.81463 -13.2741 2.46723
RightFoot  -0.0986009 -0.241179 2.44612
RightToes  0.000481921 0.542163 -0.142578
Spine  11.4029 2.09735 2.51596
Spine1  -3.46325 2.76216 -2.37711
HEad  17.8881 -14.2597 0.809701
LeftShoulder1  5.31478 -8.55691 -37.9024
LeftArm  0.826904 17.2274 -34.8137
LeftForeArm  178.759 -59.3933 -163.985
LeftHand  -0.25398 0.0180481 5.50724
RightShoulder  2.01264 3.30491 23.388
RightArm  -11.4907 -4.6612 51.9138
RightForeArm  153.577 58.5271 163.226
RightHand  0.0168115 -6.20043 -6.23343
LeftUpLeg  -2.25176 5.10944 3.30058
LeftLeg  1.74125 12.2523 -3.97873
LeftFoot  1.42139 0.159013 -1.49005
LeftToes  1.06247e-005 4.65869e-005 -8.65511e-006
215
root  14.3671 40.7868 7.93567 172.496 78.361 170.731
RightUpLeg  -0.414674 -11.0954 -10.5247
RightLeg  5.36288 -17.1131 2.55288
RightFoot  -0.803091 -0.285132 3.03071
RightToes  0.000481921 0.542163 -0.142578
Spine  9.96525 -0.523725 -2.96206
Spine1  -3.66312 -1.41599 4.84726
HEad  17.5377 -10.0129 -1.38906
LeftShoulder1  4.39457 -6.51857 -37.6325
LeftArm  0.122958 20.0664 -34.9612
LeftForeArm  179.528 -58.6966 -164.468
LeftHand  -0.25398 0.0180481 5.50724
RightShoulder  1.40287 1.0583 24.4409
RightArm  -10.8782 -23.7322 48.2103
RightForeArm  154.688 49.3596 167.3
RightHand  -0.0377288 -5.28596 -3.6465
LeftUpLeg  -3.20363 4.47233 2.92071
LeftLeg  2.40874 8.61484 -3.57291
LeftFoot  1.30323 0.150247 -1.36623
LeftToes  1.06247e-005 4.65869e-005 -8.65511e-006
216
root  14.651 40.7766 7.89671 174.108 75.7692 172.174
RightUpLeg  0.809916 -11.2166 -10.6989
RightLeg  4.79948 -19.4286 2.68809
RightFoot  -1.21854 -0.319843 3.51058
RightToes  0.000481921 0.542163 -0.142578
Spine  8.42679 -3.31573 -5.84955
Spine1  -3.12704 -4.92374 8.28114
HEad  18.0433 -5.49569 -2.60778
LeftShoulder1  3.54679 -4.84611 -36.2806
LeftArm  -1.69118 23.2406 -36.0976
LeftForeArm  179.317 -57.7517 -164.995
LeftHand  -0.25398 0.0180481 5.50724
RightShoulder  0.904181 -0.329834 22.1849
RightArm  -10.4606 -37.6936 48.3345
RightForeArm  154.717 46.7965 168.18
RightHand  -0.0469647 -4.86382 -3.02636
LeftUpLeg  -3.50383 4.02419 2.6487
LeftLeg  2.818 6.4349 -3.26314
LeftFoot  1.03059 0.148315 -1.32315
LeftToes  1.06247e-005 4.65869e-005 -8.65511e-006
217
root  14.8209 40.7913 7.82111 172.356 77.2057 170.907
RightUpLeg  1.3408 -11.061 -10.875
RightLeg  4.67395 -18.0393 2.54799
RightFoot  -1.23867 -0.336102 3.68926
RightToes  0.000481921 0.542163 -0.142578
Spine  7.1021 -4.38619 -4.83756
Spine1  -1.84861 -5.59247 5.8213
HEad  19.0621 -2.92494 -1.90384
LeftShoulder1  3.11049 -4.10005 -34.7528
LeftArm  -3.09067 24.535 -36.637
LeftForeArm  179.389 -57.1548 -165.33
LeftHand  -0.25398 0.0180481 5.50724
RightShoulder  0.74966 -0.60692 19.4664
RightArm  -12.8071 -45.6788 52.8185
RightForeArm  155.156 46.7927 168.197
RightHand  -0.0276811 -5.79922 -3.17587
LeftUpLeg  -2.14962 4.21894 2.67358
LeftLeg  2.23252 7.54973 -3.40032
LeftFoot  0.802228 0.156294 -1.4305
LeftToes  1.06247e-005 4.65869e-005 -8.65511e-006
